<?xml version="1.0" encoding="UTF-8" standalone="no"?>
<svg
   xmlns:dc="http://purl.org/dc/elements/1.1/"
   xmlns:cc="http://creativecommons.org/ns#"
   xmlns:rdf="http://www.w3.org/1999/02/22-rdf-syntax-ns#"
   xmlns:svg="http://www.w3.org/2000/svg"
   xmlns="http://www.w3.org/2000/svg"
   xmlns:sodipodi="http://sodipodi.sourceforge.net/DTD/sodipodi-0.dtd"
   xmlns:inkscape="http://www.inkscape.org/namespaces/inkscape"
   width="84.661537mm"
   height="25.918385mm"
   version="1.1"
   id="svg1252"
   sodipodi:docname="outline.svg"
   inkscape:version="0.92.4 5da689c313, 2019-01-14"
   viewBox="0 0 319.98 97.959249"
   inkscape:export-filename="/home/purisame/Documents/projects/arduino-mkr-vidor-4000-parts/outline.svg.png"
   inkscape:export-xdpi="302.32001"
   inkscape:export-ydpi="302.32001">
  <metadata
     id="metadata1256">
    <rdf:RDF>
      <cc:Work
         rdf:about="">
        <dc:format>image/svg+xml</dc:format>
        <dc:type
           rdf:resource="http://purl.org/dc/dcmitype/StillImage" />
        <dc:title />
      </cc:Work>
    </rdf:RDF>
  </metadata>
  <sodipodi:namedview
     pagecolor="#ffffff"
     bordercolor="#666666"
     borderopacity="1"
     objecttolerance="10"
     gridtolerance="10"
     guidetolerance="10"
     inkscape:pageopacity="0"
     inkscape:pageshadow="2"
     inkscape:window-width="2560"
     inkscape:window-height="1440"
     id="namedview1254"
     showgrid="false"
     inkscape:zoom="6.727722"
     inkscape:cx="162.81025"
     inkscape:cy="56.161646"
     inkscape:window-x="0"
     inkscape:window-y="0"
     inkscape:window-maximized="1"
     inkscape:current-layer="g1250"
     units="mm"
     fit-margin-top="0"
     fit-margin-left="0"
     fit-margin-right="0"
     fit-margin-bottom="0"
     inkscape:document-units="mm" />
  <desc
     id="desc2">/home/purisame/Documents/projects/arduino-mkr-vidor-4000-parts/MKR_VIDOR_4000_AssemblyTop.dxf - scale = 1.000000, origin = (0.000000, 0.000000), method = manual</desc>
  <defs
     id="defs98">
    <marker
       id="DistanceX"
       orient="auto"
       refX="0"
       refY="0"
       style="overflow:visible">
      <path
         d="M 3,-3 -3,3 M 0,-5 V 5"
         style="stroke:#000000;stroke-width:0.5"
         id="path4"
         inkscape:connector-curvature="0" />
    </marker>
    <pattern
       height="8"
       id="Hatch"
       patternUnits="userSpaceOnUse"
       width="8"
       x="0"
       y="0">
      <path
         d="M8 4 l-4,4"
         linecap="square"
         stroke="#000000"
         stroke-width="0.25"
         id="path7" />
      <path
         d="M6 2 l-4,4"
         linecap="square"
         stroke="#000000"
         stroke-width="0.25"
         id="path9" />
      <path
         d="M4 0 l-4,4"
         linecap="square"
         stroke="#000000"
         stroke-width="0.25"
         id="path11" />
    </pattern>
    <symbol
       id="*Model_Space" />
    <symbol
       id="*Paper_Space" />
    <symbol
       id="*D2">
      <path
         d="m 370.91291,1007.9646 v 94.3182"
         style="fill:none;stroke:#000000;stroke-linecap:round"
         id="path16"
         inkscape:connector-curvature="0" />
      <text
         style="font-size:9.39999962px;font-family:Arial;fill:#000000"
         transform="rotate(-90,363.82629,1055.1237)"
         x="363.82629"
         y="1055.1237"
         id="text20">
        <tspan
           sodipodi:role="line"
           id="tspan18"
           x="363.82629"
           y="1055.1237">25.0</tspan>
      </text>
      <path
         d="m 336.30182,1007.9646 h 39.33549"
         style="fill:none;stroke:#000000;stroke-linecap:round"
         id="path22"
         inkscape:connector-curvature="0" />
      <path
         d="m 336.30182,1102.2828 h 39.33549"
         style="fill:none;stroke:#000000;stroke-linecap:round"
         id="path24"
         inkscape:connector-curvature="0" />
    </symbol>
    <symbol
       id="*D5">
      <path
         d="m 219.96963,1145.0243 h 47.60418"
         style="fill:none;stroke:#000000;stroke-linecap:round"
         id="path27"
         inkscape:connector-curvature="0" />
      <text
         style="font-size:9.39999962px;font-family:Arial;fill:#000000"
         x="258.38745"
         y="1137.9376"
         id="text31">
        <tspan
           sodipodi:role="line"
           id="tspan29"
           x="258.38745"
           y="1137.9376">2.6</tspan>
      </text>
      <path
         d="m 238.86727,1104.645 v 45.1037"
         style="fill:none;stroke:#000000;stroke-linecap:round"
         id="path33"
         inkscape:connector-curvature="0" />
      <path
         d="m 248.67617,1104.645 v 45.1037"
         style="fill:none;stroke:#000000;stroke-linecap:round"
         id="path35"
         inkscape:connector-curvature="0" />
    </symbol>
    <symbol
       id="*D3">
      <path
         d="M 5.659178,1134.0272 H 51.791442"
         style="fill:none;stroke:#000000;stroke-linecap:round"
         id="path38"
         inkscape:connector-curvature="0" />
      <text
         style="font-size:9.39999962px;font-family:Arial;fill:#000000"
         x="42.605091"
         y="1126.9406"
         id="text42">
        <tspan
           sodipodi:role="line"
           id="tspan40"
           x="42.605091"
           y="1126.9406">2.2</tspan>
      </text>
      <path
         d="m 24.556815,1096.1566 v 42.595"
         style="fill:none;stroke:#000000;stroke-linecap:round"
         id="path44"
         inkscape:connector-curvature="0" />
      <path
         d="m 32.893805,1096.1566 v 42.595"
         style="fill:none;stroke:#000000;stroke-linecap:round"
         id="path46"
         inkscape:connector-curvature="0" />
    </symbol>
    <symbol
       id="*D4">
      <path
         d="M -3.753954,977.0644 H 39.134551"
         style="fill:none;stroke:#000000;stroke-linecap:round"
         id="path49"
         inkscape:connector-curvature="0" />
      <text
         style="font-size:9.39999962px;font-family:Arial;fill:#000000"
         x="28.898331"
         y="969.97778"
         id="text53">
        <tspan
           sodipodi:role="line"
           id="tspan51"
           x="28.898331"
           y="969.97778">1.3</tspan>
      </text>
      <path
         d="M 15.143683,1041.4428 V 972.34"
         style="fill:none;stroke:#000000;stroke-linecap:round"
         id="path55"
         inkscape:connector-curvature="0" />
      <path
         d="M 20.236913,1014.0908 V 972.34"
         style="fill:none;stroke:#000000;stroke-linecap:round"
         id="path57"
         inkscape:connector-curvature="0" />
    </symbol>
    <symbol
       id="*D1">
      <path
         d="M 20.236913,986.23973 H 333.93962"
         style="fill:none;stroke:#000000;stroke-linecap:round"
         id="path60"
         inkscape:connector-curvature="0" />
      <text
         style="font-size:9.39999962px;font-family:Arial;fill:#000000"
         x="177.08827"
         y="979.15314"
         id="text64">
        <tspan
           sodipodi:role="line"
           id="tspan62"
           x="177.08827"
           y="979.15314">83.0</tspan>
      </text>
      <path
         d="M 20.236913,1014.0908 V 981.51532"
         style="fill:none;stroke:#000000;stroke-linecap:round"
         id="path66"
         inkscape:connector-curvature="0" />
      <path
         d="M 333.93962,1005.6024 V 981.51532"
         style="fill:none;stroke:#000000;stroke-linecap:round"
         id="path68"
         inkscape:connector-curvature="0" />
    </symbol>
    <symbol
       id="ROUND_1">
      <path
         d="m 0.015118,1122.5197 a 0.015118,0.015118 0 1 0 -0.030236,0 0.015118,0.015118 0 1 0 0.030236,0 z"
         style="fill:none;stroke:#000000;stroke-linecap:round"
         id="path71"
         inkscape:connector-curvature="0" />
    </symbol>
    <symbol
       id="ROUND_2">
      <path
         d="m 0.018898,1122.5197 a 0.018898,0.018898 0 1 0 -0.037796,0 0.018898,0.018898 0 1 0 0.037796,0 z"
         style="fill:none;stroke:#000000;stroke-linecap:round"
         id="path74"
         inkscape:connector-curvature="0" />
    </symbol>
    <symbol
       id="ROUND_3">
      <path
         d="m 0.011339,1122.5197 a 0.011339,0.011339 0 1 0 -0.022678,0 0.011339,0.011339 0 1 0 0.022678,0 z"
         style="fill:none;stroke:#000000;stroke-linecap:round"
         id="path77"
         inkscape:connector-curvature="0" />
    </symbol>
    <symbol
       id="ROUND_4">
      <path
         d="m 0.013228,1122.5197 a 0.013228,0.013228 0 1 0 -0.026456,0 0.013228,0.013228 0 1 0 0.026456,0 z"
         style="fill:none;stroke:#000000;stroke-linecap:round"
         id="path80"
         inkscape:connector-curvature="0" />
    </symbol>
    <symbol
       id="ROUND_5">
      <path
         d="m 0.009449,1122.5197 a 0.009449,0.009449 0 1 0 -0.018898,0 0.009449,0.009449 0 1 0 0.018898,0 z"
         style="fill:none;stroke:#000000;stroke-linecap:round"
         id="path83"
         inkscape:connector-curvature="0" />
    </symbol>
    <symbol
       id="ROUND_69">
      <path
         d="m 0.00378,1122.5197 a 0.00378,0.00378 0 1 0 -0.00756,0 0.00378,0.00378 0 1 0 0.00756,0 z"
         style="fill:none;stroke:#000000;stroke-linecap:round"
         id="path86"
         inkscape:connector-curvature="0" />
    </symbol>
    <symbol
       id="ROUND_97">
      <path
         d="m 0.007559,1122.5197 a 0.007559,0.007559 0 1 0 -0.015118,0 0.007559,0.007559 0 1 0 0.015118,0 z"
         style="fill:none;stroke:#000000;stroke-linecap:round"
         id="path89"
         inkscape:connector-curvature="0" />
    </symbol>
    <symbol
       id="ROUND_98">
      <path
         d="m 0.005669,1122.5197 a 0.005669,0.005669 0 1 0 -0.011338,0 0.005669,0.005669 0 1 0 0.011338,0 z"
         style="fill:none;stroke:#000000;stroke-linecap:round"
         id="path92"
         inkscape:connector-curvature="0" />
    </symbol>
    <symbol
       id="ROUND_206">
      <path
         d="m 0.014872,1122.5197 a 0.014872,0.014872 0 1 0 -0.029744,0 0.014872,0.014872 0 1 0 0.029744,0 z"
         style="fill:none;stroke:#000000;stroke-linecap:round"
         id="path95"
         inkscape:connector-curvature="0" />
    </symbol>
  </defs>
  <g
     inkscape:groupmode="layer"
     inkscape:label="0"
     id="g124"
     transform="translate(-14.458995,-1004.8236)" />
  <g
     inkscape:groupmode="layer"
     inkscape:label="ASSEMBLYBTM_GBR"
     id="g126"
     transform="translate(-14.458995,-1004.8236)" />
  <g
     inkscape:groupmode="layer"
     inkscape:label="ASSEMBLYTOP_GBR"
     id="g1250"
     transform="translate(-14.458995,-1004.8236)">
    <path
       id="path1248"
       style="fill:none;stroke:#000000;stroke-linecap:butt;stroke-opacity:1;stroke-width:1.00157478;stroke-miterlimit:4;stroke-dasharray:none"
       d="m 20.236913,1093.7944 v -77.3414 m 0,77.3414 a 8.488396,8.488396 0 0 0 8.488397,8.4884 m 210.14196,-7.7486 v 7.7486 H 28.72531 m 219.95086,-7.7486 a 4.90445,4.90445 0 0 0 -9.8089,0 m 82.81697,-22.0557 h 12.25538 v 29.8043 h -85.26345 v -7.7486 m 73.00807,-27.7153 a 2.8298,2.8298 0 1 0 0,5.6596 m -73.00807,-56.7797 v -7.7342 h 85.26345 v 58.8543 h -12.25538 m -82.81697,-51.1201 a 4.90445,4.90445 0 0 0 9.8089,0 m -219.95086,-7.7342 h 210.14196 v 7.7342 m -210.14196,-7.7342 a 8.488396,8.488396 0 0 0 -8.488397,8.4884" />
    <path
       style="fill:#ff0000;stroke:#2b1100;stroke-width:0.14863873;stroke-linecap:round;stroke-linejoin:miter"
       d="M 118.89494,2.5687672 C 84.07278,2.5945536 49.250158,2.5250108 14.428355,2.6914293 11.861085,2.5201277 9.3077183,3.7544082 7.5926938,5.6213768 6.2068119,7.2475246 5.0645519,9.3162006 5.3365437,11.519024 c 0.00799,25.767718 -0.1315231,51.53604 0.024212,77.303379 -0.1701348,1.846304 0.4313991,3.651263 1.4778239,5.160075 1.7493343,2.661978 4.9679454,4.263944 8.1543844,3.952506 68.91422,0.159111 137.828766,0.09031 206.743126,0.126206 1.01306,-0.14132 2.65409,0.470082 3.07183,-0.816867 0.19949,-2.972307 -0.094,-5.993352 0.37705,-8.945559 0.83718,-2.527467 4.23295,-3.822655 6.46492,-2.235968 1.34875,0.909632 2.244,2.531329 2.01727,4.169044 0.0867,2.36954 -0.065,4.77902 0.17206,7.123415 0.41879,1.146713 1.91072,0.56598 2.83856,0.706344 27.44067,0 54.88135,0 82.32204,0 1.38931,-0.1751 0.93389,-1.81419 1.00011,-2.783784 0,-9.066962 0,-18.133924 0,-27.200886 -0.17501,-1.388935 -1.81373,-0.934239 -2.7832,-1.001025 -3.6165,-0.07191 -7.23778,0.142101 -10.83205,-0.142796 -1.97145,-0.632915 -1.79227,-4.028793 0.31267,-4.28875 4.14064,-0.221112 8.3009,-0.01315 12.44406,-0.152625 1.31315,-0.294064 0.73476,-1.926719 0.85852,-2.887211 0,-18.678933 0,-37.357865 0,-56.0367981 -0.17509,-1.3893108 -1.81418,-0.9339006 -2.78378,-1.000118 -27.49816,0 -54.99633,0 -82.49449,0 -1.38889,0.1750087 -0.93428,1.8137435 -1.0012,2.7832018 -0.0955,2.4307687 0.2326,4.9138473 -0.42074,7.2928783 -0.69117,1.44097 -2.18417,2.668317 -3.8704,2.482687 -2.42391,0.336361 -4.54589,-2.022442 -4.47107,-4.363316 -0.14519,-2.430225 -0.0147,-4.8879792 -0.13252,-7.3383122 -0.29571,-1.3117824 -1.92666,-0.7331806 -2.887,-0.8571175 -34.34793,3.799e-4 -68.69586,7.599e-4 -103.04379,0.00114 z"
       id="path75"
       inkscape:connector-curvature="0"
       transform="translate(14.458688,1004.8236)" />
  </g>
</svg>
